<?xml version="1.0" standalone="no"?>
<!DOCTYPE svg PUBLIC "-//W3C//DTD SVG 20010904//EN"
 "http://www.w3.org/TR/2001/REC-SVG-20010904/DTD/svg10.dtd">
<svg version="1.0" xmlns="http://www.w3.org/2000/svg"
 width="1024.000000pt" height="1024.000000pt" viewBox="0 0 1024.000000 1024.000000"
 preserveAspectRatio="xMidYMid meet">

<g transform="translate(0.000000,1024.000000) scale(0.100000,-0.100000)"
fill="#000000" stroke="none">
<path d="M0 5120 l0 -5120 5120 0 5120 0 0 5120 0 5120 -5120 0 -5120 0 0
-5120z m5161 4124 c35 -18 80 -107 52 -103 -28 5 -53 -2 -47 -13 4 -6 -3 -4
-17 5 -45 32 -99 12 -99 -36 0 -38 40 -62 79 -49 24 9 28 8 27 -6 -1 -18 -30
-44 -59 -55 -28 -11 -85 18 -107 55 -30 50 -28 128 6 167 40 48 112 63 165 35z
m-243 -121 c3 -18 -2 -23 -20 -24 -22 0 -22 -1 -3 -9 45 -18 -24 -23 -249 -17
-254 7 -296 2 -324 -41 -16 -24 -17 -73 -17 -638 0 -485 -3 -610 -12 -607 -18
7 -17 -36 2 -80 8 -20 15 -52 15 -70 0 -37 39 -87 69 -88 9 0 72 0 141 1 172
1 146 -17 -38 -26 -141 -7 -143 -7 -168 17 -18 16 -25 19 -24 9 5 -35 1 -43
-16 -29 -9 7 -20 24 -25 36 -13 36 -12 1519 2 1544 23 45 55 49 369 46 l295
-2 3 -22z m964 16 c41 -11 68 -48 68 -94 0 -32 -13 -32 -30 0 -17 32 -68 55
-122 54 -42 -1 -42 -1 -13 -10 17 -5 38 -7 47 -5 9 2 19 -1 21 -8 3 -8 -62 -9
-252 -5 -289 7 -277 7 -268 16 4 3 -2 12 -13 20 -25 17 -26 30 -2 36 36 10
528 7 564 -4z m-1984 -126 c4 -30 -31 -49 -52 -27 -19 19 -20 26 -4 42 19 19
53 10 56 -15z m280 -20 c2 -13 -2 -23 -9 -23 -8 0 -10 -14 -4 -52 13 -86 13
-812 1 -820 -24 -17 -65 -8 -85 18 -20 26 -21 37 -21 428 1 429 1 434 51 462
34 19 63 13 67 -13z m865 -68 c21 -6 25 -14 31 -67 3 -34 6 -78 6 -99 0 -35 3
-39 25 -39 23 0 25 3 25 50 0 30 -4 50 -11 50 -8 0 -8 4 -1 13 6 6 12 28 14
46 3 30 8 36 36 43 18 5 51 27 74 50 l42 42 269 -2 c185 -1 274 -5 284 -13 19
-17 15 -1371 -5 -1391 -10 -10 -89 -14 -344 -16 -290 -2 -333 -1 -355 13 -23
15 -27 15 -59 0 -30 -14 -75 -16 -364 -13 -253 2 -332 6 -342 16 -10 10 -14
149 -16 681 -1 424 1 678 7 695 l10 26 278 2 278 3 47 -42 c25 -23 57 -45 71
-48z m1018 66 c13 -11 20 -23 16 -27 -9 -9 -59 18 -65 35 -6 18 24 13 49 -8z
m277 -60 c7 -45 -35 -66 -70 -34 -24 22 -23 49 4 67 19 13 25 14 43 2 11 -7
21 -23 23 -35z m452 -57 c57 -31 88 -70 110 -136 l17 -52 49 3 c69 3 118 -29
122 -81 2 -21 -2 -46 -8 -58 -10 -20 -18 -20 -369 -20 l-358 0 -27 25 c-65 60
-2 141 107 133 l50 -3 14 50 c19 62 43 97 89 126 65 40 145 45 204 13z m-3160
-26 c54 -37 73 -71 78 -138 4 -53 1 -65 -22 -100 -30 -45 -79 -70 -138 -70
-60 0 -107 27 -141 82 l-30 48 -93 0 c-94 0 -116 8 -89 30 11 9 39 11 99 7
l84 -6 6 32 c9 46 41 94 78 117 47 28 125 27 168 -2z m214 -184 c7 -19 -10
-44 -29 -44 -16 0 -26 25 -19 45 8 20 40 19 48 -1z m-1050 -260 c32 -32 33
-70 4 -101 -37 -40 -96 -27 -117 26 -10 24 -10 34 3 59 26 50 70 56 110 16z
m4676 6 c24 -24 25 -43 4 -64 -30 -31 -84 -9 -84 34 0 17 34 50 52 50 5 0 17
-9 28 -20z m-3734 -65 c61 -25 65 -46 62 -378 -3 -252 -5 -292 -18 -292 -13 0
-16 43 -20 310 l-5 309 -25 13 c-19 10 -128 13 -452 13 -274 0 -429 4 -433 10
-3 6 -3 15 0 20 4 6 159 10 431 10 350 0 431 -3 460 -15z m2740 -51 c38 -18
49 -29 59 -62 6 -22 5 -23 -17 -17 -12 4 -26 12 -29 17 -11 17 -63 25 -94 15
-42 -14 -85 -46 -96 -71 -7 -16 -8 -12 -3 14 9 47 40 89 78 106 41 18 61 17
102 -2z m456 -76 c24 -20 28 -44 12 -67 -16 -23 -53 -28 -71 -10 -7 7 -61 11
-149 10 -136 -1 -174 5 -160 28 5 7 55 11 146 11 88 0 141 4 145 11 6 9 40 27
56 28 3 1 12 -5 21 -11z m-492 -18 c11 -11 20 -29 20 -39 0 -40 -55 -67 -78
-38 -22 28 -23 56 -3 76 26 26 36 26 61 1z m-2965 -100 c18 -19 20 -35 23
-198 2 -203 13 -176 -111 -285 l-77 -69 0 192 0 192 -29 29 -29 29 -495 0
-494 0 -27 -25 -26 -24 0 -370 c0 -360 1 -371 20 -381 20 -11 20 -8 20 357 0
215 4 374 10 383 8 13 72 15 495 13 268 -2 491 -5 496 -8 14 -9 12 -702 -3
-711 -6 -4 -90 -7 -187 -6 -97 1 -196 -3 -221 -7 -32 -7 -1 -9 114 -8 154 1
159 0 177 -22 11 -13 19 -31 19 -42 0 -17 -15 -18 -246 -19 -136 0 -250 -3
-255 -6 -5 -2 -34 -48 -65 -102 -31 -53 -66 -112 -78 -129 l-21 -33 -106 0
c-88 0 -108 3 -113 16 -3 9 -6 69 -6 134 l0 118 -106 -1 c-105 -1 -107 0 -130
27 l-24 27 0 455 c0 444 0 455 20 472 19 16 73 17 683 23 364 3 682 4 707 2
28 -2 52 -11 65 -23z m2843 5 c-3 -3 -9 2 -12 12 -6 14 -5 15 5 6 7 -7 10 -15
7 -18z m1407 -9 c110 -35 196 -88 281 -173 76 -75 142 -180 164 -260 14 -49 9
-63 -16 -42 -10 8 -27 14 -39 14 -21 1 -21 -1 -17 -132 3 -116 1 -142 -18
-205 -28 -95 -81 -195 -129 -244 -117 -122 -318 -194 -506 -181 -81 6 -200 40
-249 72 -30 20 -46 14 -26 -10 10 -12 10 -15 -3 -15 -8 0 -18 6 -20 13 -4 9
-8 9 -15 -1 -13 -19 -16 -19 -35 -3 -13 10 -14 18 -7 32 9 15 8 17 -6 12 -11
-4 -15 -2 -11 4 4 6 0 16 -8 23 -10 9 -15 9 -15 1 0 -6 -6 -11 -14 -11 -18 0
-180 213 -202 265 -24 57 -30 230 -11 322 55 256 261 469 519 534 106 27 274
21 383 -15z m-1341 -36 c10 0 17 -3 13 -6 -10 -10 -57 5 -57 18 0 9 3 9 12 0
7 -7 21 -12 32 -12z m118 -226 c11 -11 27 -33 34 -51 23 -55 18 -82 -26 -125
-38 -38 -43 -40 -86 -35 -66 7 -96 40 -102 111 -4 53 -3 57 32 92 34 34 40 36
82 31 25 -2 54 -13 66 -23z m-2706 -202 c20 -14 44 -57 44 -80 0 -29 -42 -72
-70 -72 -27 0 -80 52 -80 78 0 48 71 98 106 74z m979 -92 c4 -6 -7 -10 -24
-10 -17 0 -31 5 -31 10 0 6 11 10 24 10 14 0 28 -4 31 -10z m1677 -187 l3
-198 142 0 c99 0 146 -4 154 -12 7 -7 10 -15 7 -18 -8 -8 -315 -8 -327 0 -7 4
-11 79 -11 216 0 178 2 209 15 209 12 0 15 -31 17 -197z m2002 104 c8 -12 7
-21 -6 -33 -22 -22 -48 -11 -48 20 0 37 34 45 54 13z m-6642 -13 c23 -51 -38
-87 -76 -45 -18 19 -18 22 -2 46 22 34 62 34 78 -1z m4358 0 c10 -11 11 -23 4
-42 -17 -48 -84 -38 -84 12 0 43 53 63 80 30z m-2066 -62 c-14 -22 -44 -22
-57 0 -9 13 -7 22 8 38 l19 21 20 -21 c16 -16 18 -24 10 -38z m-310 16 c9 -35
7 -201 -3 -217 -21 -33 -31 4 -31 120 0 95 3 119 14 119 7 0 16 -10 20 -22z
m1030 -146 c2 -4 -12 -6 -32 -4 -56 5 -62 10 -15 11 23 1 44 -3 47 -7z m-107
-8 c-3 -3 -12 -4 -19 -1 -8 3 -5 6 6 6 11 1 17 -2 13 -5z m780 0 c-3 -3 -12
-4 -19 -1 -8 3 -5 6 6 6 11 1 17 -2 13 -5z m66 -11 c-7 -2 -21 -2 -30 0 -10 3
-4 5 12 5 17 0 24 -2 18 -5z m-1033 -28 c0 -4 -38 -15 -105 -31 -16 -4 -27 -3
-23 1 11 12 128 39 128 30z m1197 -11 c-3 -3 -12 -4 -19 -1 -8 3 -5 6 6 6 11
1 17 -2 13 -5z m2956 -34 c16 -18 27 -42 27 -58 0 -20 8 -33 30 -45 46 -27 39
-45 -13 -37 -41 6 -45 4 -60 -22 -15 -26 -15 -28 1 -29 9 -1 -1 -5 -23 -10
-53 -13 -211 -5 -230 11 -34 28 -7 87 47 100 13 4 25 17 29 34 9 32 44 74 74
87 36 16 88 2 118 -31z m-3822 -23 c-15 -38 -46 -53 -146 -72 -181 -33 -335
-79 -488 -146 -103 -45 -144 -49 -183 -15 -39 33 -38 85 0 125 30 32 124 77
177 87 30 5 26 1 -31 -34 -36 -22 -78 -48 -95 -59 -41 -25 -47 -75 -12 -98 24
-15 30 -14 134 28 145 60 285 103 449 137 121 25 141 32 168 59 33 34 43 29
27 -12z m949 33 c18 -12 2 -12 -25 0 -13 6 -15 9 -5 9 8 0 22 -4 30 -9z
m-1423 -6 c-3 -3 -12 -4 -19 -1 -8 3 -5 6 6 6 11 1 17 -2 13 -5z m1470 -10
c-3 -3 -12 -4 -19 -1 -8 3 -5 6 6 6 11 1 17 -2 13 -5z m-316 -73 c162 -28 266
-57 396 -112 54 -22 110 -46 124 -51 32 -14 75 -4 88 20 16 30 -9 64 -70 97
-114 62 -133 91 -35 55 31 -12 76 -36 99 -54 36 -27 42 -38 45 -74 3 -34 -2
-47 -22 -67 -36 -36 -72 -32 -179 19 -116 56 -301 117 -437 146 -172 37 -177
39 -194 65 l-16 24 33 -22 c24 -16 73 -30 168 -46z m-444 -3 c-2 -13 -4 -3 -4
22 0 25 2 35 4 23 2 -13 2 -33 0 -45z m-2981 -45 c-6 -6 -66 29 -66 38 0 5 15
-1 34 -13 19 -13 33 -24 32 -25z m-496 12 c17 -9 30 -17 30 -19 0 -3 3 -12 7
-22 5 -13 3 -15 -8 -9 -7 5 -30 11 -50 12 -30 3 -44 -2 -73 -28 l-36 -31 0 31
c0 39 39 81 75 81 14 0 39 -7 55 -15z m20 -112 c-1 -17 -29 -45 -40 -38 -6 4
-2 13 12 25 26 22 28 23 28 13z m3718 -23 c222 -53 389 -168 504 -344 21 -33
38 -63 38 -68 0 -19 -18 -4 -55 48 -41 57 -189 204 -206 204 -5 0 -9 -13 -9
-28 0 -29 38 -73 72 -85 27 -9 66 -170 99 -408 40 -293 -42 -541 -255 -768
-182 -193 -378 -289 -701 -341 -275 -45 -390 -94 -521 -225 -112 -112 -154
-201 -183 -392 -15 -95 -14 -154 4 -235 48 -229 252 -419 524 -487 236 -60
482 -51 711 25 83 28 288 113 363 151 27 13 123 49 213 78 184 61 279 106 341
165 44 42 90 106 112 155 20 45 26 184 11 231 -17 52 -75 142 -114 177 -50 45
-135 77 -206 77 -82 0 -247 -73 -318 -140 l-32 -31 -9 24 c-28 74 -149 108
-231 65 -60 -31 -84 -79 -78 -163 4 -70 31 -116 78 -137 17 -7 30 -15 30 -18
0 -11 -167 -167 -226 -211 -197 -149 -316 -196 -475 -187 -221 12 -341 163
-284 355 8 28 28 64 43 80 23 25 37 31 93 36 125 11 283 75 409 165 35 26 121
96 190 157 240 213 362 290 573 360 137 46 227 58 372 52 160 -7 253 -37 387
-128 78 -53 118 -104 117 -149 -1 -41 -11 -71 -24 -72 -6 0 -20 -4 -33 -9 -13
-5 -28 -9 -35 -9 -8 0 -8 -3 1 -12 7 -7 12 -20 12 -30 0 -10 4 -26 9 -36 22
-40 49 -133 61 -209 14 -93 4 -197 -30 -307 -53 -169 -209 -349 -395 -452 -90
-51 -235 -113 -355 -154 -52 -18 -160 -59 -240 -90 -259 -102 -401 -141 -590
-160 -299 -31 -659 52 -892 206 -91 61 -226 193 -263 259 -16 28 -40 64 -55
80 -85 95 -194 286 -234 409 -114 350 193 853 625 1025 105 41 160 54 409 96
471 80 642 155 755 330 55 86 73 174 55 273 -31 172 -139 281 -288 290 -110 7
-187 -41 -243 -150 -32 -62 -254 -352 -303 -394 -85 -74 -162 -82 -273 -25
-81 41 -119 75 -149 132 -57 113 -53 225 13 390 113 283 375 503 673 564 104
21 309 19 408 -5z m-3824 -16 c24 -23 19 -27 -9 -8 -14 9 -25 18 -25 20 0 10
20 3 34 -12z m126 12 c0 -2 -7 -9 -15 -16 -13 -11 -14 -10 -9 4 5 14 24 23 24
12z m2164 -67 c36 -43 42 -75 22 -114 -40 -74 -146 -73 -181 0 -19 41 -19 58
0 95 20 38 41 49 92 50 34 0 46 -5 67 -31z m2692 13 c54 -43 55 -112 3 -156
-40 -34 -88 -34 -127 -1 -75 63 -34 175 63 175 23 0 49 -8 61 -18z m-2471 0
c-19 -17 -145 -81 -145 -74 1 10 122 81 140 81 8 1 10 -2 5 -7z m4441 -46 c19
-19 34 -41 34 -50 0 -14 10 -16 79 -10 71 6 80 5 100 -15 26 -26 47 -27 54 -1
11 41 97 49 130 12 27 -32 28 -62 2 -88 l-24 -24 -345 0 c-300 0 -347 2 -360
16 -23 23 -20 67 7 91 30 28 56 35 95 24 28 -8 33 -7 43 12 21 42 61 67 108
67 36 0 49 -6 77 -34z m-6714 -23 c57 -63 80 -84 112 -106 50 -35 57 -96 16
-137 -30 -30 -72 -25 -111 13 l-34 32 -145 0 c-122 0 -145 2 -145 15 0 13 24
15 145 18 l146 3 18 29 c9 17 21 30 27 30 17 0 9 17 -29 61 -77 88 -77 126 0
42z m2697 1 c-7 -8 -67 -41 -133 -73 -312 -149 -577 -358 -778 -611 -101 -128
-148 -201 -229 -355 -151 -290 -206 -495 -216 -812 -10 -291 23 -459 160 -825
16 -44 20 -65 12 -62 -39 15 -144 296 -187 500 -20 95 -23 139 -23 339 0 248
7 306 56 487 29 106 105 301 155 400 222 437 643 826 1083 999 94 37 123 41
100 13z m2278 -83 c32 -26 69 -60 82 -75 25 -26 51 -35 51 -16 0 20 30 9 35
-13 11 -41 -10 -73 -53 -84 -62 -16 -101 16 -46 37 l26 10 -83 86 c-46 47 -85
89 -87 95 -8 21 20 6 75 -40z m-3189 30 c-1 -4 -42 -49 -89 -100 l-87 -91
-204 0 -205 0 1 -57 c0 -102 -74 -197 -178 -228 -65 -20 -85 -19 -149 5 -123
46 -188 170 -151 288 61 192 317 235 432 73 l27 -38 187 -7 c105 -3 197 -2
210 3 14 5 61 43 107 85 74 68 109 92 99 67z m2468 -47 c274 -140 525 -355
722 -617 173 -230 325 -568 366 -817 34 -205 32 -423 -6 -688 -15 -103 -30
-78 -17 29 11 102 11 428 -2 519 -5 41 -14 110 -19 152 -14 117 -56 244 -146
433 -48 103 -130 236 -139 227 -5 -4 -5 -2 -1 5 16 28 -275 361 -424 484 -88
73 -189 142 -296 204 -107 62 -190 125 -163 125 9 0 65 -25 125 -56z m-4616
-50 c35 -41 35 -71 -2 -111 -46 -49 -128 -10 -128 61 0 26 7 40 31 60 41 35
61 33 99 -10z m900 -14 c11 -11 20 -25 20 -32 0 -20 -32 -48 -55 -48 -43 0
-60 47 -28 82 21 23 38 23 63 -2z m1350 -32 c-68 -59 -258 -250 -286 -288 -27
-36 -66 -67 -48 -38 32 52 353 372 363 363 3 -4 -10 -20 -29 -37z m3009 -88
c88 -78 235 -239 227 -248 -3 -2 -49 42 -103 99 -54 57 -132 137 -173 178 -90
88 -67 75 49 -29z m2278 -116 c65 -41 26 -154 -51 -154 -74 0 -112 74 -71 136
29 44 71 50 122 18z m-5674 -116 c71 -84 -5 -191 -114 -159 -66 20 -91 101
-48 155 45 57 116 58 162 4z m3806 16 c97 -82 -9 -232 -119 -167 -60 35 -67
108 -16 159 43 43 90 46 135 8z m404 12 c9 -22 -2 -26 -64 -26 -56 0 -77 10
-64 30 10 16 122 13 128 -4z m1277 -6 c0 -20 -7 -20 -584 -20 -379 0 -587 4
-591 10 -3 6 -3 15 0 20 4 6 212 10 591 10 577 0 584 0 584 -20z m-6504 -61
c3 -6 0 -15 -7 -20 -8 -5 -226 -9 -485 -9 -396 0 -473 2 -477 14 -3 8 -3 17 0
20 12 12 961 7 969 -5z m4224 -164 c36 -19 50 -43 50 -89 0 -68 -95 -102 -145
-51 -15 14 -25 36 -25 52 0 38 34 90 62 96 13 2 24 5 26 6 2 0 16 -6 32 -14z
m-2658 -35 c19 -23 25 -70 9 -70 -5 0 -11 10 -13 23 -2 12 -9 21 -16 20 -6 -2
-12 2 -12 8 0 8 -6 7 -17 -2 -9 -8 -14 -9 -10 -3 6 10 -9 12 -45 5 -13 -2 -40
-62 -34 -77 3 -8 3 -14 0 -14 -2 0 -9 11 -14 25 -12 31 2 73 33 98 29 24 95
16 119 -13z m3279 -52 c11 -21 15 -38 10 -38 -11 0 -38 40 -52 77 -9 23 -8 25
6 13 9 -8 25 -31 36 -52z m-4418 23 c18 -30 24 -86 8 -77 -13 8 -21 -30 -21
-101 0 -47 -4 -63 -14 -63 -10 0 -15 20 -20 73 -3 39 -8 89 -12 110 -4 26 -1
44 10 62 21 32 28 31 49 -4z m452 -25 c-36 -62 -42 -58 -9 5 14 28 28 49 31
46 2 -3 -7 -26 -22 -51z m-670 34 c8 -13 -6 -35 -22 -36 -7 -1 -264 -2 -570
-3 -405 -1 -553 -5 -539 -12 11 -7 51 -9 105 -6 47 3 66 2 41 -1 -31 -5 -44
-11 -42 -21 2 -11 -11 -13 -65 -9 -37 3 -57 3 -43 1 14 -3 32 -11 40 -18 11
-10 50 -15 125 -18 l110 -3 -145 -4 -145 -4 105 -6 105 -6 -151 -2 c-166 -2
-210 3 -218 25 -3 8 -1 11 4 8 6 -4 10 5 10 20 0 15 -4 24 -10 20 -6 -4 -8
-11 -5 -16 4 -5 1 -9 -6 -9 -7 0 -9 -10 -6 -26 6 -31 -17 -44 -39 -22 -16 16
-31 116 -21 142 6 14 79 16 691 16 442 0 687 -4 691 -10z m6630 4 c19 -8 45
-55 45 -84 0 -11 -11 -32 -25 -45 l-24 -25 -673 0 c-725 1 -697 -1 -717 53
-12 31 -6 53 22 85 l20 22 668 0 c367 0 675 -3 684 -6z m-5348 -26 c-3 -8 -6
-5 -6 6 -1 11 2 17 5 13 3 -3 4 -12 1 -19z m-17 2 c0 -5 -5 -10 -11 -10 -5 0
-7 5 -4 10 3 6 8 10 11 10 2 0 4 -4 4 -10z m450 -11 c0 -21 42 -96 75 -134 19
-22 35 -42 35 -46 0 -26 -144 -113 -280 -169 -205 -85 -310 -159 -387 -273
-60 -91 -83 -176 -84 -308 0 -82 17 -151 52 -207 9 -15 7 -33 -11 -88 -12 -38
-24 -70 -25 -72 -2 -2 -18 4 -37 14 -47 24 -103 85 -133 144 -14 28 -30 48
-35 45 -27 -17 -1 -234 45 -371 26 -77 77 -178 96 -189 5 -4 9 -56 9 -116 l0
-110 -28 33 c-92 109 -165 273 -214 483 -29 123 -37 396 -15 512 37 194 137
366 284 489 75 61 182 118 345 183 117 47 196 97 253 160 34 37 55 45 55 20z
m3360 -5 c11 -12 10 -18 -6 -35 -20 -20 -20 -20 -39 0 -14 17 -15 23 -5 36 16
19 34 19 50 -1z m-4510 -49 c109 -56 57 -213 -63 -191 -71 13 -106 92 -67 154
31 50 78 64 130 37z m4250 0 c66 -34 76 -121 19 -169 -68 -57 -169 -14 -169
71 1 90 74 137 150 98z m-4812 -167 c2 -11 -3 -18 -12 -18 -12 0 -16 -11 -17
-42 -1 -35 -2 -38 -8 -18 l-7 25 -622 0 c-488 -1 -624 -3 -634 -13 -9 -9 -13
-53 -13 -148 l-1 -134 56 1 55 1 103 119 104 119 49 0 c31 0 49 -4 49 -12 0
-9 3 -9 12 0 12 12 100 17 111 6 3 -4 1 -16 -5 -28 -9 -17 -5 -16 19 7 l29 27
176 0 c113 0 179 -4 183 -10 5 -8 11 -8 20 0 15 13 249 10 262 -3 4 -5 7 -54
5 -109 -2 -83 1 -104 15 -120 10 -11 13 -22 7 -27 -5 -5 -283 -11 -619 -14
l-610 -5 -3 -26 c-3 -21 -9 -26 -32 -26 -55 0 -60 22 -60 246 0 156 3 204 13
213 15 12 832 20 1177 11 175 -4 195 -7 198 -22z m5387 -160 c3 -106 5 -436 3
-733 l-3 -540 -75 0 -75 0 -3 720 c-1 396 0 726 3 733 3 8 27 12 74 12 l69 0
7 -192z m1073 177 c17 -6 18 -1415 0 -1433 -7 -7 -35 -12 -62 -11 -54 1 -163
15 -133 18 10 0 15 6 12 11 -3 6 -17 7 -31 4 -33 -8 -74 3 -74 21 0 7 -12 15
-27 17 -16 3 -1 4 32 5 43 0 54 -2 38 -8 -35 -13 -27 -19 23 -19 37 0 45 3 40
15 -4 11 2 15 28 15 47 0 56 27 56 169 0 110 -2 122 -27 170 -16 28 -75 101
-133 162 l-105 112 -6 86 -5 86 96 95 c52 52 113 124 135 159 37 62 39 68 39
155 l1 91 -130 5 c-195 9 -572 6 -582 -3 -13 -13 -5 -138 11 -185 24 -69 90
-155 182 -240 76 -70 86 -82 75 -96 -8 -9 -10 -16 -5 -16 5 0 0 -7 -10 -15
-12 -9 -15 -15 -7 -15 10 0 12 -15 9 -61 l-4 -61 -90 -87 c-114 -110 -152
-164 -165 -238 -14 -75 -8 -236 10 -257 11 -13 42 -16 190 -18 97 -1 158 -3
136 -5 -22 -3 -44 -9 -49 -14 -6 -5 -17 -9 -25 -9 -9 0 -28 -7 -43 -14 -17 -9
-41 -13 -63 -9 -21 3 -41 1 -50 -7 -10 -8 -56 -15 -115 -18 l-100 -5 -3 269
-2 269 -3 -272 -2 -273 -25 0 -25 0 0 733 0 732 487 -3 c269 -1 494 -4 501 -7z
m-5978 -105 c0 -5 -9 -33 -21 -62 -25 -64 -75 -254 -88 -339 -9 -54 -8 -64 6
-74 15 -11 15 -13 -5 -24 -14 -7 -29 -8 -46 -1 -24 9 -25 11 -12 37 8 15 24
75 36 133 25 119 75 284 96 318 15 22 34 30 34 12z m4378 -92 c40 -119 50
-158 73 -292 23 -132 25 -226 6 -226 -9 0 -17 32 -25 108 -16 141 -46 287 -83
395 -33 100 -34 107 -16 107 8 0 26 -38 45 -92z m-696 40 c30 -14 75 -43 98
-64 43 -39 110 -133 110 -154 0 -15 -27 -41 -59 -58 -21 -11 -27 -11 -36 0
-26 34 -112 89 -173 109 -98 33 -278 34 -340 1 -24 -12 -40 -17 -35 -9 33 54
86 127 107 146 68 64 221 78 328 29z m-4195 -70 c-2 -18 -4 -4 -4 32 0 36 2
50 4 33 2 -18 2 -48 0 -65z m6327 45 c-3 -27 -11 -59 -18 -73 l-11 -25 -267
-3 -266 -2 -15 42 c-9 24 -18 58 -21 76 l-5 32 305 0 305 0 -7 -47z m-6114
-88 c0 -30 -4 -55 -10 -55 -5 0 -10 25 -10 55 0 30 5 55 10 55 6 0 10 -25 10
-55z m40 0 c0 -30 -4 -55 -10 -55 -5 0 -10 25 -10 55 0 30 5 55 10 55 6 0 10
-25 10 -55z m-1740 -19 c0 -8 -7 -19 -15 -26 -28 -23 -60 21 -33 48 14 14 48
-2 48 -22z m7602 -82 c-58 -49 -73 -81 -64 -134 4 -23 4 -94 1 -158 -4 -64 -3
-125 2 -134 16 -30 9 -62 -22 -103 l-30 -40 23 -20 c13 -11 37 -30 53 -42 l30
-23 -39 4 c-92 11 -267 9 -278 -2 -7 -7 -18 -12 -25 -12 -23 0 -1 29 102 135
123 128 135 151 135 255 0 100 -11 122 -88 183 -33 26 -75 65 -92 87 l-32 40
183 0 183 0 -42 -36z m-6092 -172 c3 -2 -1 -7 -7 -9 -8 -3 -13 -22 -13 -44 0
-24 -4 -38 -10 -34 -6 4 -10 -9 -10 -32 0 -21 -4 -33 -8 -26 -4 6 -6 33 -4 59
3 31 7 42 13 33 7 -11 9 -10 9 4 0 14 -8 17 -42 16 -41 -1 -42 -2 -16 -12 20
-8 27 -17 26 -34 -1 -13 -8 -23 -14 -23 -6 0 -17 -7 -24 -15 -14 -17 -7 -19
19 -6 13 7 17 5 18 -9 1 -14 -3 -17 -15 -13 -16 6 -15 5 1 -14 26 -30 21 -36
-8 -8 -23 24 -30 25 -142 25 -74 0 -127 -5 -143 -13 -31 -15 -50 -74 -29 -88
20 -13 23 -12 53 16 24 22 35 25 108 25 l81 0 45 -42 c25 -23 39 -39 31 -36
-23 9 -55 -18 -41 -35 7 -8 7 -18 2 -27 -6 -9 -5 -17 3 -22 8 -5 5 -8 -8 -8
-17 0 -17 -2 -5 -10 10 -7 -28 -10 -117 -10 -130 0 -132 0 -152 -26 -12 -15
-21 -33 -21 -40 0 -24 -17 -15 -24 11 -11 42 -42 53 -151 55 -176 3 -170 4
-215 -41 -34 -34 -40 -37 -40 -20 0 11 -10 29 -22 41 -20 18 -35 20 -175 20
l-153 0 -17 -27 c-21 -32 -29 -173 -18 -331 6 -83 10 -104 24 -112 10 -5 89
-10 175 -11 152 -1 158 -1 183 22 19 18 25 20 20 7 -4 -11 -2 -15 7 -12 7 3
26 -2 42 -11 16 -8 48 -15 72 -15 29 0 45 -5 48 -15 4 -8 15 -15 26 -15 14 0
18 5 14 15 -4 12 4 15 39 15 25 0 45 -4 45 -9 0 -4 23 3 50 16 28 13 50 28 50
33 0 4 18 -1 39 -13 22 -12 35 -25 29 -28 -5 -4 11 -5 36 -3 25 2 46 -1 46 -6
0 -4 8 -11 18 -13 13 -4 11 -5 -5 -6 -13 0 -23 -5 -23 -11 0 -5 -26 -11 -57
-11 -54 -2 -55 -2 -18 -8 l40 -6 -30 -8 c-16 -4 -219 -9 -450 -12 -231 -3
-441 -7 -466 -10 -38 -4 -49 -2 -67 18 -22 23 -22 26 -25 486 -2 453 -2 463
18 477 17 13 110 14 685 8 366 -3 667 -9 670 -12z m6844 -78 c9 -8 16 -23 16
-31 0 -19 -28 -53 -43 -53 -19 0 -47 33 -47 55 0 42 44 60 74 29z m-6387 -98
c14 -13 -14 -26 -54 -26 l-46 0 6 -157 c4 -87 13 -201 21 -253 9 -52 13 -96
10 -99 -2 -3 -10 2 -18 10 -22 24 -39 145 -45 324 l-6 170 -55 3 c-60 3 -84
17 -60 33 14 9 237 5 247 -5z m5597 -53 c3 -10 51 -67 106 -128 54 -60 100
-113 100 -116 0 -3 -10 -4 -22 -1 -24 5 -161 150 -183 193 -20 39 -27 69 -16
69 5 0 12 -8 15 -17z m-7574 -13 c25 -25 25 -32 2 -60 -25 -31 -69 -21 -78 17
-5 20 -2 31 16 45 28 23 35 23 60 -2z m6580 0 c0 -6 -30 -9 -72 -9 -59 1 -66
3 -38 9 53 11 110 11 110 0z m-810 -115 c-7 -9 -15 -13 -19 -10 -3 3 1 10 9
15 21 14 24 12 10 -5z m707 -72 c-11 -138 -39 -294 -54 -300 -8 -3 -16 -3 -19
0 -3 3 4 63 15 134 12 70 23 154 27 186 4 43 9 57 21 57 14 0 15 -11 10 -77z
m-5857 -198 c0 -124 -3 -175 -11 -175 -15 0 -73 61 -96 100 -27 46 -47 38 -98
-40 -71 -108 -75 -102 -75 110 l0 180 140 0 140 0 0 -175z m404 11 c3 -90 3
-171 0 -180 -6 -14 -23 -16 -138 -14 l-131 3 -3 165 c-1 90 0 170 2 177 4 10
38 13 134 13 l129 0 7 -164z m404 -6 c3 -170 -1 -207 -18 -180 -7 10 -10 11
-10 3 0 -18 -221 -18 -238 -1 -13 13 -18 329 -5 342 4 3 66 5 137 4 l131 -3 3
-165z m-318 120 c0 -5 -2 -10 -4 -10 -3 0 -8 5 -11 10 -3 6 -1 10 4 10 6 0 11
-4 11 -10z m3599 -29 c38 -27 40 -46 3 -27 -17 9 -35 16 -39 16 -4 0 -8 -24
-9 -53 0 -54 -22 -99 -53 -112 -27 -11 -60 36 -62 88 -4 98 80 144 160 88z
m-3602 -123 c3 -53 2 -109 -1 -124 -14 -54 -23 -3 -24 134 -1 107 1 131 9 112
6 -14 14 -68 16 -122z m7257 110 c13 -19 14 -25 2 -43 -21 -31 -68 -27 -80 7
-18 52 46 82 78 36z m-559 2 c-3 -5 -14 -10 -24 -10 -9 0 -22 -5 -27 -10 -14
-14 -117 -33 -206 -38 -25 -2 -30 -5 -18 -12 13 -8 12 -10 -2 -10 -10 0 -18
-4 -18 -10 0 -5 -18 -9 -40 -8 -22 1 -43 -2 -47 -5 -3 -4 23 -8 58 -8 43 -1
21 -5 -66 -11 -152 -10 -155 -11 -155 -37 0 -17 9 -21 51 -27 62 -8 46 -22
-26 -23 -46 0 -54 3 -59 22 -8 30 -8 182 1 190 11 12 585 8 578 -3z m-1285
-185 c63 -33 78 -114 31 -167 -24 -27 -36 -32 -72 -32 -24 0 -54 4 -66 8 -19
7 -23 1 -50 -80 -26 -81 -53 -121 -53 -77 1 21 53 200 61 208 3 3 27 -4 53
-15 40 -18 50 -19 73 -8 15 7 34 25 42 39 19 34 1 82 -40 106 -51 30 -32 45
21 18z m970 -15 c0 -5 -9 -10 -21 -10 -11 0 -17 5 -14 10 3 6 13 10 21 10 8 0
14 -4 14 -10z m-5680 -13 c0 -2 -7 -17 -15 -34 -12 -24 -13 -37 -4 -62 13 -36
41 -47 94 -37 27 5 35 4 35 -8 0 -9 -9 -20 -19 -26 -60 -32 -145 17 -145 82 0
36 26 88 44 88 6 0 10 -2 10 -3z m5798 -74 c-10 -2 -28 -2 -40 0 -13 2 -5 4
17 4 22 1 32 -1 23 -4z m-6281 -69 c-3 -3 -12 -4 -19 -1 -8 3 -5 6 6 6 11 1
17 -2 13 -5z m662 -76 c24 -82 27 -122 9 -116 -13 5 -69 168 -61 181 14 23 32
-1 52 -65z m6166 -14 c19 -8 45 -55 45 -82 0 -11 -8 -29 -17 -41 l-18 -21
-690 -1 -690 -1 -17 22 c-24 29 -23 71 3 104 l20 26 674 0 c370 0 681 -3 690
-6z m-6087 -179 c14 -31 15 -45 3 -45 -7 0 -31 51 -31 66 0 14 19 -1 28 -21z
m4217 -8 c-8 -29 -35 -58 -35 -38 0 17 30 74 36 68 3 -3 2 -16 -1 -30z m1414
-51 c8 -9 9 -40 5 -97 -6 -75 -4 -87 14 -109 16 -19 18 -30 10 -50 -5 -13 -13
-27 -18 -30 -6 -3 -89 -5 -187 -3 l-177 2 3 41 c1 25 -2 40 -9 40 -7 0 -5 6 4
16 9 8 16 22 16 30 0 26 22 10 46 -31 12 -22 51 -32 65 -18 5 5 11 40 14 77 5
78 -5 96 -54 96 -23 0 -31 -5 -31 -18 0 -11 -10 -27 -22 -38 -12 -10 -19 -14
-15 -8 3 5 -5 22 -17 37 -17 20 -33 27 -60 27 -22 0 -36 -5 -36 -12 0 -9 -3
-9 -8 -3 -13 19 -56 15 -80 -8 -19 -18 -25 -19 -32 -7 -5 8 -6 19 -3 25 4 5 3
7 -1 3 -4 -3 -21 -2 -37 2 -16 5 -29 7 -29 5 0 -3 16 -34 36 -70 27 -49 33
-69 25 -79 -14 -16 -4 -26 26 -26 19 0 23 5 21 28 -2 35 32 124 46 119 6 -2
10 -11 8 -21 -2 -9 1 -16 6 -16 4 0 9 -19 10 -42 3 -61 13 -120 24 -140 8 -17
-1 -18 -137 -18 -191 0 -185 -6 -185 168 0 71 3 132 7 135 3 4 172 7 373 7
299 0 370 -3 379 -14z m135 -18 c9 -34 6 -190 -4 -213 -8 -18 -9 -18 -9 -2 -1
10 -5 16 -9 13 -5 -3 -7 31 -4 75 4 70 2 84 -16 109 -23 31 -20 40 14 40 14 0
24 -8 28 -22z m-5698 -4 c61 -29 80 -93 44 -151 -52 -86 -190 -45 -190 57 0
44 23 78 64 96 40 17 42 17 82 -2z m4165 -23 c83 -83 -20 -215 -124 -159 -48
25 -68 88 -42 137 20 39 41 50 93 51 35 0 49 -6 73 -29z m343 -7 c41 -41 -2
-101 -50 -69 -28 18 -31 41 -7 67 20 22 37 23 57 2z m674 -71 c-2 -17 -10 -29
-20 -31 -14 -3 -18 3 -18 27 0 25 4 31 21 31 16 0 20 -5 17 -27z m-5580 11
c12 -4 22 -13 22 -20 0 -12 -124 -14 -790 -14 -675 0 -790 2 -790 14 0 8 6 17
13 19 17 8 1518 8 1545 1z m627 -130 c-26 -20 -166 -96 -169 -92 -10 18 -36
81 -36 88 0 21 18 8 35 -24 l19 -35 75 40 c78 40 112 50 76 23z m3774 -54
c-13 -22 -26 -40 -31 -40 -13 0 -10 10 19 59 32 55 44 38 12 -19z m-3641 -67
c41 -38 141 -133 221 -213 213 -212 362 -322 571 -422 117 -56 332 -123 469
-147 136 -24 161 -41 161 -106 0 -32 -6 -49 -26 -69 -32 -31 -30 -31 -174 -5
-188 33 -398 97 -555 168 -93 43 -80 46 18 4 168 -71 305 -113 483 -148 157
-31 197 -32 224 -5 35 35 21 102 -25 120 -13 5 -61 14 -107 20 -45 6 -132 24
-193 40 -363 94 -609 243 -919 555 -116 116 -236 252 -236 267 0 16 13 7 88
-59z m-2045 6 c59 -27 68 -116 18 -161 -43 -38 -90 -38 -133 1 -28 25 -33 36
-33 76 0 39 5 51 28 71 31 26 80 32 120 13z m1398 -27 l31 -28 -1 -413 c-1
-249 -6 -421 -12 -432 -5 -11 -21 -22 -35 -25 -13 -4 -184 -7 -378 -8 l-353
-1 -121 -125 -121 -125 -1 66 c0 36 -3 93 -6 125 l-6 59 -80 -2 c-127 -4 -118
-38 -118 437 0 430 2 449 51 484 21 14 81 16 571 16 l548 0 31 -28z m4806 17
c69 -26 122 -125 108 -203 -13 -68 -116 -136 -187 -122 -47 9 -95 40 -119 78
-31 51 -23 145 17 195 17 21 42 44 55 50 30 16 88 17 126 2z m-604 -36 c-11
-29 -57 -86 -61 -75 -4 13 45 92 58 92 5 0 6 -8 3 -17z m-3667 -86 c33 -45 64
-81 70 -80 5 1 17 5 27 8 15 6 17 1 15 -41 -3 -44 -1 -49 30 -67 30 -18 34
-18 57 -3 36 24 52 9 23 -21 l-23 -25 83 -77 c45 -43 82 -81 82 -85 0 -20 -36
3 -109 68 -60 55 -91 76 -114 78 -27 2 -33 8 -35 31 -2 18 -13 32 -33 42 -18
10 -29 23 -29 37 0 12 -17 44 -39 72 -50 66 -91 129 -91 138 0 25 33 -4 86
-75z m3609 -11 c105 -44 73 -196 -42 -196 -53 0 -103 49 -103 101 0 35 30 80
63 94 40 18 41 18 82 1z m1994 -22 c41 -53 15 -114 -48 -114 -34 0 -71 37 -71
72 0 64 80 92 119 42z m-5802 -10 c8 -21 -19 -46 -40 -38 -17 6 -23 35 -10 47
12 13 44 7 50 -9z m5648 -44 c0 -12 -72 -14 -527 -15 -514 0 -557 2 -531 29 4
3 243 5 532 4 454 -3 526 -5 526 -18z m-2025 -115 c-7 -8 -17 -15 -22 -15 -11
0 14 29 26 30 5 0 3 -7 -4 -15z m-100 -88 c0 -2 -15 -16 -32 -33 l-33 -29 29
33 c28 30 36 37 36 29z m2065 -52 c16 -15 25 -36 25 -55 0 -19 -9 -40 -25 -55
-24 -25 -26 -25 -203 -25 -125 0 -182 4 -190 12 -7 7 -12 38 -12 70 0 44 4 59
18 67 9 6 91 11 190 11 170 0 173 0 197 -25z m-5540 -11 c41 -44 33 -114 -16
-139 -59 -31 -115 -9 -134 53 -10 35 14 82 49 98 47 20 74 17 101 -12z m3388
-23 c-9 -12 -22 -21 -27 -21 -5 0 1 11 14 25 28 30 39 26 13 -4z m1697 -16 l0
-25 -170 0 c-163 0 -170 1 -170 20 0 18 8 20 163 23 89 1 165 4 170 5 4 1 7
-9 7 -23z m-2040 11 c0 -8 -61 -48 -66 -43 -3 2 10 14 28 26 35 22 38 23 38
17z m-2398 -45 c28 -25 33 -36 33 -74 0 -34 -6 -52 -24 -71 -76 -80 -204 -1
-172 106 22 73 103 92 163 39z m2687 15 c48 -25 63 -83 36 -136 -42 -82 -155
-66 -185 26 -14 43 -7 67 31 99 34 28 76 32 118 11z m1128 -39 c66 -34 118
-100 134 -173 l12 -54 54 0 c122 0 205 -76 220 -199 5 -42 8 -47 27 -44 30 6
87 -35 113 -82 58 -102 0 -242 -115 -275 -25 -8 -210 -10 -574 -8 l-537 3 -31
30 c-53 50 -74 101 -74 180 0 164 127 296 274 282 l55 -5 1 72 c1 96 30 161
100 225 70 64 118 81 214 77 57 -2 87 -9 127 -29z m-708 -17 c10 0 12 -9 7
-36 -5 -23 -3 -41 6 -51 11 -15 10 -16 -12 -10 -14 4 -30 7 -37 7 -19 0 -43
30 -43 54 0 29 20 48 45 42 11 -3 26 -6 34 -6z m-889 -25 c-14 -8 -29 -14 -35
-14 -5 0 1 6 15 14 14 8 30 14 35 14 6 0 -1 -6 -15 -14z m280 -45 c0 -29 -207
-142 -375 -205 -119 -44 -296 -90 -429 -110 -108 -16 -153 -7 -175 33 -16 29
-14 79 4 106 21 32 51 42 170 61 55 9 115 20 133 25 18 4 30 5 27 0 -6 -9
-107 -34 -205 -49 -72 -11 -110 -42 -110 -87 0 -31 33 -64 64 -64 40 0 314 57
403 84 105 31 272 103 388 165 99 53 105 56 105 41z m-2335 -69 c-5 -4 -85 46
-85 54 0 2 20 -8 45 -22 24 -15 42 -29 40 -32z m1135 -121 c0 -87 -3 -165 -6
-174 -17 -45 -24 1 -24 164 0 155 2 179 15 174 12 -5 15 -33 15 -164z m1710
160 c0 -5 -2 -10 -4 -10 -3 0 -8 5 -11 10 -3 6 -1 10 4 10 6 0 11 -4 11 -10z
m-1020 -20 c-8 -5 -19 -10 -25 -10 -5 0 -3 5 5 10 8 5 20 10 25 10 6 0 3 -5
-5 -10z m1070 -6 c0 -8 -4 -12 -10 -9 -5 3 -10 10 -10 16 0 5 5 9 10 9 6 0 10
-7 10 -16z m-3347 -54 c23 -12 50 -29 60 -38 36 -32 15 -31 -50 1 -38 19 -86
40 -108 47 -51 16 -57 19 -50 30 7 11 95 -13 148 -40z m-287 -111 c46 -39 84
-76 85 -83 1 -44 -3 -481 -5 -483 -9 -9 -108 33 -149 63 -92 67 -157 193 -157
303 0 53 23 141 48 180 21 34 74 91 85 91 4 0 46 -32 93 -71z m5192 -23 c44 4
44 4 40 39 -2 22 0 34 6 32 6 -2 12 -18 14 -35 3 -25 8 -31 29 -34 43 -5 41
-28 -2 -28 -37 0 -38 0 -32 -35 3 -19 2 -35 -4 -35 -5 0 -9 15 -9 34 0 39 -11
50 -40 41 -15 -5 -20 -15 -20 -41 0 -19 -4 -34 -9 -34 -5 0 -9 14 -9 30 1 37
-2 40 -38 44 -42 5 -43 8 -4 15 30 5 35 10 38 36 5 54 16 62 21 15 4 -27 11
-45 19 -44z m-4781 -4 c19 -67 26 -192 14 -239 -6 -23 -26 -61 -44 -85 -36
-48 -92 -72 -185 -80 l-52 -5 2 160 3 160 114 69 c63 38 119 67 125 65 6 -2
16 -22 23 -45z m2860 -66 c15 -13 25 -28 20 -32 -4 -4 -13 -2 -19 4 -16 16
-91 15 -106 0 -9 -9 -12 -9 -12 0 0 21 39 52 64 52 14 0 38 -11 53 -24z
m-2299 -47 c-2 -26 -10 -34 -43 -47 -63 -24 -96 -52 -116 -97 -21 -47 -33 -59
-67 -68 -21 -5 -22 -3 -16 31 14 78 78 152 167 193 63 28 79 25 75 -12z m157
0 c76 -39 125 -103 140 -180 l7 -36 -91 -45 -90 -44 -30 28 -31 29 0 141 0
140 28 -6 c15 -4 45 -16 67 -27z m2031 -85 c27 -21 41 -25 69 -21 30 5 35 3
35 -13 0 -43 -85 -36 -125 12 -43 51 -33 63 21 22z m-430 -39 c38 -41 42 -43
58 -27 11 12 33 17 70 17 64 0 90 -19 108 -76 14 -47 -4 -96 -39 -110 -33 -12
-93 -11 -93 2 0 7 -22 8 -72 2 -104 -12 -347 -7 -364 8 -42 35 8 119 72 119
29 0 36 5 47 33 17 39 45 65 83 77 49 15 86 2 130 -45z m-766 20 c42 -22 37
-31 -17 -41 l-48 -9 -3 -45 c-2 -25 -9 -48 -15 -52 -7 -4 -49 -8 -94 -8 l-81
0 -7 41 c-9 53 10 98 49 115 43 19 179 18 216 -1z m1260 -345 c0 -207 -2 -240
-15 -240 -13 0 -15 33 -15 240 0 207 2 240 15 240 13 0 15 -33 15 -240z
m-3702 174 c47 -54 9 -138 -62 -138 -30 0 -45 8 -76 40 -50 50 -51 76 -2 109
47 33 105 28 140 -11z m-210 -36 c3 -17 -14 -18 -247 -18 -203 0 -251 3 -251
13 0 8 3 17 7 21 4 3 115 5 247 4 220 -3 241 -5 244 -20z m1859 -142 c-1 -6
-27 -23 -57 -38 -70 -35 -162 -38 -230 -7 -46 21 -80 46 -80 60 0 4 43 39 96
78 l96 71 89 -77 c49 -42 88 -81 86 -87z m743 134 c26 -17 -8 -30 -79 -30 -79
0 -72 -17 9 -23 30 -2 4 -4 -57 -5 l-113 -2 0 28 c0 16 3 32 7 35 10 11 216 8
233 -3z m-1100 -30 c0 -5 -5 -10 -11 -10 -5 0 -7 5 -4 10 3 6 8 10 11 10 2 0
4 -4 4 -10z m-30 -20 c0 -5 -8 -10 -17 -10 -15 0 -16 2 -3 10 19 12 20 12 20
0z m1924 -26 c9 -3 16 -12 16 -20 0 -8 4 -14 8 -14 4 0 6 -15 4 -34 l-4 -34
-121 -6 c-184 -9 -296 -4 -307 14 -17 27 -11 58 16 79 25 19 40 21 200 21 95
0 179 -3 188 -6z m276 -53 c0 -33 -16 -51 -46 -51 -28 0 -39 35 -12 37 13 1
18 -3 14 -13 -7 -19 -2 -18 19 5 16 19 16 20 -1 20 -11 0 -41 3 -69 7 l-50 8
50 8 c30 4 51 3 53 -2 6 -16 22 -11 22 6 0 8 5 12 10 9 6 -3 10 -19 10 -34z
m-1128 9 c35 0 39 -2 36 -22 -3 -21 -9 -23 -68 -26 -97 -5 -150 5 -150 28 0
26 16 30 84 25 32 -3 77 -5 98 -5z m1766 -100 c18 -11 41 -34 50 -50 l17 -30
406 0 407 0 16 25 c33 51 126 14 126 -50 0 -31 -41 -75 -69 -75 -10 0 -31 14
-44 30 l-26 30 -409 0 c-366 0 -411 -2 -423 -16 -11 -14 -28 -16 -99 -12 -112
7 -134 18 -127 65 14 85 103 127 175 83z m-3178 -10 c0 -13 7 -20 20 -20 11 0
20 -7 20 -15 0 -8 -9 -15 -19 -15 -11 0 -23 -9 -26 -20 -9 -27 -22 -25 -29 5
-4 16 -13 25 -26 25 -28 0 -25 18 4 26 14 3 27 12 30 20 8 21 26 17 26 -6z
m1345 -119 c-7 -138 -15 -164 -77 -259 -57 -87 -57 -132 0 -182 33 -30 52 -38
107 -46 36 -6 68 -7 71 -2 3 4 14 8 26 8 58 0 128 66 128 122 0 13 -14 45 -30
71 -77 121 -83 142 -88 284 l-5 132 52 -2 51 -2 0 -41 c0 -87 7 -99 87 -151
171 -110 262 -282 250 -473 -14 -219 -153 -395 -361 -457 -60 -18 -190 -20
-260 -4 -135 32 -275 140 -334 259 -17 35 -39 97 -48 140 -46 206 52 418 254
547 67 43 67 43 77 127 l6 58 51 -2 51 -1 -8 -126z m71 123 c21 -5 22 -13 26
-143 l3 -137 53 -91 c54 -94 59 -111 42 -143 -14 -26 -39 -38 -99 -50 -55 -10
-96 -1 -143 32 -40 27 -36 61 17 142 58 89 64 114 66 269 2 70 5 127 8 127 3
0 16 -3 27 -6z m-2579 -48 c18 -20 33 -45 33 -56 0 -18 6 -20 79 -20 88 0 111
-5 111 -26 0 -11 -20 -14 -95 -14 l-94 0 -16 -30 c-19 -36 -62 -60 -109 -60
-27 0 -46 9 -76 36 -37 34 -40 40 -40 88 1 116 129 167 207 82z m505 35 c38
-14 75 -58 88 -106 11 -39 10 -51 -4 -90 -47 -121 -197 -125 -257 -6 -19 35
-31 47 -54 52 l-30 6 27 13 c15 7 32 25 38 40 31 75 121 118 192 91z m2932
-126 c7 -20 -18 -49 -38 -42 -18 7 -21 38 -5 54 13 13 35 7 43 -12z m-2624
-43 c43 -35 -2 -108 -50 -82 -32 17 -37 60 -10 82 12 10 26 18 30 18 4 0 18
-8 30 -18z m942 -4 c90 -27 165 -144 151 -235 -5 -33 -34 -84 -68 -119 -31
-32 -56 -34 -469 -34 -403 0 -417 1 -436 20 -28 28 -25 66 8 100 38 38 90 47
146 26 24 -9 52 -26 61 -36 24 -26 32 -25 60 9 36 42 75 55 150 48 l65 -5 0
32 c0 34 30 97 64 135 54 61 175 87 268 59z m2239 -38 c58 -30 99 -98 99 -167
0 -117 -86 -203 -203 -203 -137 0 -234 145 -179 270 51 116 169 158 283 100z
m-3763 -139 c3 -30 5 -32 33 -26 22 5 29 3 29 -9 0 -11 -9 -16 -30 -16 -29 0
-34 -7 -31 -42 1 -10 -4 -18 -13 -18 -11 0 -16 9 -16 30 0 27 -3 30 -31 30
-20 0 -29 4 -26 13 2 6 15 12 28 12 20 0 25 6 27 33 4 42 26 37 30 -7z m4729
4 c3 -9 3 -18 1 -20 -2 -3 -103 -6 -224 -7 -194 -1 -219 0 -222 14 -4 23 15
25 241 27 170 1 198 -1 204 -14z m-1677 -10 c15 -18 -2 -45 -30 -45 -23 0 -34
28 -19 46 15 18 33 18 49 -1z m218 -17 c-3 -20 -10 -23 -52 -26 -52 -3 -72 7
-63 32 5 12 21 16 62 16 53 0 56 -1 53 -22z m1038 -263 c15 -23 15 -27 0 -50
-19 -29 -42 -32 -68 -8 -22 20 -23 46 -2 67 23 23 51 20 70 -9z m-3830 -12
c18 -24 17 -38 -2 -57 -40 -40 -101 3 -75 53 14 26 58 28 77 4z m2906 -113
l30 -30 319 0 c275 0 319 -2 319 -15 0 -8 -11 -17 -23 -20 -13 -4 -160 -5
-325 -3 -214 2 -302 0 -302 -8 0 -20 -40 -47 -70 -47 -64 0 -92 72 -49 127 27
35 63 34 101 -4z m-1993 -16 c25 -21 31 -33 31 -65 0 -80 -84 -109 -141 -48
-16 17 -29 36 -29 41 0 6 -12 8 -30 5 -20 -5 -30 -3 -30 6 0 9 -45 12 -182 12
-166 0 -183 2 -186 18 -3 16 10 17 177 17 116 0 182 -4 186 -11 8 -13 64 -2
85 17 17 14 58 32 77 33 6 1 25 -11 42 -25z m-629 -34 c0 -17 -7 -20 -45 -20
-38 0 -45 3 -45 20 0 17 7 20 45 20 38 0 45 -3 45 -20z m974 -216 c31 -30 9
-84 -34 -84 -17 0 -50 34 -50 52 0 13 39 48 54 48 8 0 22 -7 30 -16z m1291 -8
c31 -46 -25 -97 -66 -60 -23 21 -24 42 -2 66 22 25 50 23 68 -6z"/>
<path d="M4813 9093 c9 -2 23 -2 30 0 6 3 -1 5 -18 5 -16 0 -22 -2 -12 -5z"/>
<path d="M4302 9068 c-7 -7 -12 -19 -12 -27 0 -11 5 -8 16 7 18 25 15 39 -4
20z"/>
<path d="M4281 9004 c0 -11 3 -14 6 -6 3 7 2 16 -1 19 -3 4 -6 -2 -5 -13z"/>
<path d="M4282 8775 c0 -16 2 -22 5 -12 2 9 2 23 0 30 -3 6 -5 -1 -5 -18z"/>
<path d="M4284 8470 c0 -129 2 -182 3 -117 2 64 2 170 0 235 -1 64 -3 11 -3
-118z"/>
<path d="M4283 8070 c0 -41 2 -58 4 -37 2 20 2 54 0 75 -2 20 -4 3 -4 -38z"/>
<path d="M4447 8893 c-12 -11 -8 -23 8 -23 8 0 15 7 15 15 0 16 -12 20 -23 8z"/>
<path d="M5610 8880 c0 -13 5 -20 13 -17 6 2 12 10 12 17 0 7 -6 15 -12 18 -8
2 -13 -5 -13 -18z"/>
<path d="M5737 8894 c-13 -13 -7 -24 14 -24 11 0 19 5 17 12 -5 14 -22 21 -31
12z"/>
<path d="M4580 8880 c0 -5 7 -10 15 -10 8 0 15 5 15 10 0 6 -7 10 -15 10 -8 0
-15 -4 -15 -10z"/>
<path d="M5336 8865 c-9 -26 -7 -32 5 -12 6 10 9 21 6 23 -2 3 -7 -2 -11 -11z"/>
<path d="M5444 8768 c-49 -46 -114 -103 -144 -128 -30 -24 -89 -74 -130 -111
-41 -36 -91 -71 -111 -78 -20 -6 -47 -23 -59 -36 -13 -14 -29 -25 -35 -25 -6
0 -71 32 -143 71 -108 58 -135 69 -147 59 -33 -27 -15 -45 123 -121 l137 -77
11 -51 c14 -62 35 -96 72 -114 72 -37 138 -28 189 25 38 40 53 76 53 129 0 31
15 63 76 161 42 68 98 155 125 193 91 131 104 155 87 171 -12 12 -26 4 -104
-68z m-143 -215 c-5 -10 -18 -25 -28 -34 -42 -37 -108 -123 -105 -138 2 -12
-8 -17 -39 -19 -23 -1 -50 -7 -61 -13 -24 -13 -41 -56 -33 -86 7 -28 -10 -30
-25 -4 -21 39 -12 81 25 118 29 29 40 34 63 28 24 -5 33 0 61 35 27 33 137
130 149 130 1 0 -2 -8 -7 -17z"/>
<path d="M4606 8753 c-5 -13 13 -37 68 -91 71 -69 96 -81 96 -47 0 18 -128
155 -145 155 -7 0 -16 -8 -19 -17z"/>
<path d="M4450 8725 c0 -10 7 -15 18 -13 21 4 19 22 -2 26 -10 2 -16 -3 -16
-13z"/>
<path d="M5620 8725 c0 -8 7 -15 15 -15 8 0 15 7 15 15 0 8 -7 15 -15 15 -8 0
-15 -7 -15 -15z"/>
<path d="M5725 8731 c-3 -5 -1 -12 5 -16 12 -7 30 2 30 16 0 12 -27 12 -35 0z"/>
<path d="M4430 8365 c0 -8 6 -24 12 -35 10 -16 10 -24 0 -40 -6 -11 -12 -27
-12 -35 0 -24 36 -17 48 10 11 23 17 25 77 25 63 0 65 1 65 26 0 26 -1 26 -64
22 -60 -4 -65 -2 -75 19 -12 26 -51 32 -51 8z"/>
<path d="M5725 8360 c-5 -16 -17 -20 -73 -22 -64 -3 -67 -4 -67 -28 0 -24 2
-25 63 -25 55 0 65 -3 81 -24 22 -28 58 -23 46 7 -15 35 -17 63 -5 77 6 8 9
19 5 25 -11 17 -43 11 -50 -10z"/>
<path d="M4676 7966 c-42 -40 -76 -78 -76 -83 0 -6 7 -17 16 -24 14 -12 26 -3
90 65 41 43 74 84 74 91 0 34 -33 19 -104 -49z"/>
<path d="M5417 8033 c-18 -17 -1 -44 68 -112 71 -71 76 -74 92 -58 16 16 13
22 -62 97 -80 81 -86 85 -98 73z"/>
<path d="M5725 7900 c-7 -12 2 -30 16 -30 5 0 9 9 9 20 0 21 -15 27 -25 10z"/>
<path d="M4453 7888 c2 -7 10 -13 17 -13 7 0 15 6 18 13 2 7 -5 12 -18 12 -13
0 -20 -5 -17 -12z"/>
<path d="M5080 7818 c0 -35 -3 -80 -6 -100 -6 -37 -6 -38 25 -38 l31 0 0 100
0 100 -25 0 c-24 0 -25 -3 -25 -62z"/>
<path d="M5315 7860 c-6 -10 64 -109 78 -110 4 0 -6 27 -23 60 -30 59 -42 70
-55 50z"/>
<path d="M4853 7848 c-6 -7 -13 -22 -16 -33 -7 -19 -6 -19 7 -2 8 10 23 25 33
32 16 13 16 14 2 15 -9 0 -21 -6 -26 -12z"/>
<path d="M4447 7733 c-12 -11 -8 -23 8 -23 8 0 15 7 15 15 0 16 -12 20 -23 8z"/>
<path d="M4580 7720 c0 -13 5 -20 13 -17 6 2 12 10 12 17 0 7 -6 15 -12 18 -8
2 -13 -5 -13 -18z"/>
<path d="M5615 7730 c-8 -13 4 -32 16 -25 12 8 12 35 0 35 -6 0 -13 -4 -16
-10z"/>
<path d="M5740 7725 c0 -9 5 -15 11 -13 6 2 11 8 11 13 0 5 -5 11 -11 13 -6 2
-11 -4 -11 -13z"/>
<path d="M2477 7819 c7 -7 15 -10 18 -7 3 3 -2 9 -12 12 -14 6 -15 5 -6 -5z"/>
<path d="M2800 7774 c0 -54 1 -56 23 -50 12 3 46 6 75 6 l52 0 0 50 0 50 -75
0 -75 0 0 -56z"/>
<path d="M3022 7778 l3 -53 78 -3 77 -3 0 56 0 55 -81 0 -80 0 3 -52z"/>
<path d="M2346 7621 c-1 -3 -4 -25 -5 -47 -3 -53 -2 -54 216 -54 l173 0 -1 56
-2 55 -189 -2 c-104 -1 -190 -5 -192 -8z"/>
<path d="M3020 7573 l0 -53 81 0 80 0 -3 51 -3 52 -78 1 -77 1 0 -52z"/>
<path d="M2346 7420 c-2 -3 -3 -25 -2 -50 l1 -45 80 0 80 0 -3 45 c-2 25 -5
46 -5 46 -6 5 -149 9 -151 4z"/>
<path d="M2597 7422 c-27 -3 -28 -6 -25 -50 l3 -47 78 -3 77 -3 0 50 0 49 -52
4 c-29 1 -66 2 -81 0z"/>
<path d="M2798 7370 l4 -50 79 0 79 0 0 50 0 50 -82 0 -83 0 3 -50z"/>
<path d="M3020 7370 l0 -50 80 0 80 0 0 50 0 50 -80 0 -80 0 0 -50z"/>
<path d="M2433 7203 c26 -2 67 -2 90 0 23 2 2 3 -48 3 -49 0 -68 -1 -42 -3z"/>
<path d="M2333 7155 c0 -22 2 -30 4 -17 2 12 2 30 0 40 -3 9 -5 -1 -4 -23z"/>
<path d="M7482 8008 l3 -43 -56 -7 c-124 -15 -254 -93 -340 -200 -57 -72 -85
-137 -103 -238 -13 -75 -13 -93 0 -155 32 -153 114 -279 231 -356 135 -88 273
-115 406 -80 220 58 363 206 406 423 56 281 -152 570 -441 612 -47 7 -48 8
-48 43 0 20 -3 34 -6 30 -3 -3 -17 -1 -31 4 -24 9 -24 8 -21 -33z m8 -106 c0
-14 -13 -21 -57 -30 -79 -17 -150 -52 -202 -101 -24 -22 -45 -40 -46 -39 -2 2
-5 13 -9 24 -16 51 174 155 297 163 10 1 17 -6 17 -17z m226 -32 c90 -46 140
-90 130 -115 -5 -14 -16 -9 -63 28 -32 25 -68 50 -81 56 -36 19 -114 41 -144
41 -22 0 -28 5 -28 21 0 20 4 21 53 16 31 -4 84 -22 133 -47z m-35 -82 c40
-20 86 -49 100 -65 44 -46 109 -185 109 -229 -1 -39 -1 -38 -41 41 -22 44 -42
86 -43 93 -1 7 -13 20 -27 29 -21 15 -38 33 -61 67 -5 7 -13 3 -23 -11 -9 -13
-23 -23 -31 -23 -27 0 -14 -26 42 -80 84 -83 101 -139 68 -237 -21 -64 -111
-157 -173 -178 -63 -21 -142 -19 -195 6 -49 22 -130 106 -161 165 -25 47 -38
51 -65 24 -19 -19 -21 -29 -16 -64 10 -62 -9 -33 -29 43 -20 78 -8 174 30 236
14 22 31 55 40 73 15 31 70 78 130 110 55 28 119 41 196 39 64 -2 86 -7 150
-39z m-525 -82 c3 -7 -6 -30 -20 -51 -14 -21 -31 -56 -37 -79 -6 -22 -15 -58
-20 -79 -7 -28 -15 -37 -27 -35 -13 3 -16 13 -14 45 6 108 95 258 118 199z
m784 -68 c43 -92 56 -170 29 -176 -12 -2 -20 13 -32 64 -9 36 -30 89 -47 115
-33 55 -36 65 -17 72 25 11 29 6 67 -75z m-865 -245 c12 -56 48 -149 72 -183
22 -33 22 -36 6 -48 -15 -11 -20 -10 -31 5 -28 37 -63 115 -78 174 -13 51 -14
63 -2 70 21 14 27 11 33 -18z m915 14 c0 -38 -30 -138 -57 -189 -37 -71 -43
-77 -62 -55 -8 11 -4 27 19 68 16 30 35 79 41 109 6 30 13 58 16 63 4 7 43 11
43 4z m-771 -167 c25 0 92 -72 82 -89 -15 -23 -45 -7 -78 43 -18 26 -33 53
-32 60 0 7 2 7 6 -1 2 -7 12 -13 22 -13z m189 -134 c93 -31 130 -31 212 2 69
28 102 29 86 3 -4 -6 -39 -20 -77 -32 -89 -27 -189 -23 -266 11 -53 23 -63 36
-41 58 9 9 15 7 25 -7 7 -11 34 -26 61 -35z m-179 10 c40 -38 135 -84 201 -98
53 -10 60 -15 60 -35 0 -20 -4 -23 -27 -17 -174 37 -319 125 -276 167 10 11
15 9 42 -17z m518 -81 c-25 -22 -105 -53 -184 -70 -30 -6 -33 -4 -33 17 0 21
7 25 59 35 33 6 83 22 113 36 63 29 88 19 45 -18z"/>
<path d="M7291 7699 c-7 -17 -25 -36 -40 -42 -14 -6 -28 -12 -30 -13 -5 -4 23
-64 29 -62 3 2 25 24 49 51 40 43 43 50 33 72 -15 33 -24 31 -41 -6z"/>
<path d="M7460 7490 c-44 -44 -3 -130 55 -116 30 8 66 61 58 85 -19 52 -76 68
-113 31z"/>
<path d="M7132 7921 c-44 -32 -69 -61 -36 -42 25 14 91 70 83 71 -3 0 -24 -13
-47 -29z"/>
<path d="M7036 7822 l-19 -27 24 22 c12 12 21 24 18 27 -2 2 -13 -8 -23 -22z"/>
<path d="M7070 7016 c0 -2 7 -7 16 -10 8 -3 12 -2 9 4 -6 10 -25 14 -25 6z"/>
<path d="M7111 6987 c2 -1 13 -9 24 -17 19 -14 19 -14 6 3 -7 9 -18 17 -24 17
-6 0 -8 -1 -6 -3z"/>
<path d="M7100 6950 c-8 -5 -10 -10 -5 -10 6 0 17 5 25 10 8 5 11 10 5 10 -5
0 -17 -5 -25 -10z"/>
<path d="M6386 7797 c-25 -18 -25 -80 -1 -107 26 -29 72 -23 98 12 47 63 -33
142 -97 95z"/>
<path d="M4788 6317 c-32 -29 -44 -79 -29 -115 15 -36 38 -50 89 -53 90 -7
126 89 58 157 -41 41 -81 45 -118 11z m80 -63 c4 -29 -23 -51 -43 -34 -16 13
-20 42 -8 54 14 14 48 1 51 -20z"/>
<path d="M4428 6142 c-72 -6 -102 -87 -54 -147 31 -39 92 -42 130 -6 35 33 36
98 4 128 -31 27 -37 29 -80 25z m31 -61 c7 -13 6 -24 -3 -37 -12 -15 -16 -16
-30 -5 -19 16 -20 33 -4 49 17 17 26 15 37 -7z"/>
<path d="M4966 4439 c-98 -37 -146 -113 -127 -200 19 -84 73 -131 159 -137
166 -12 256 153 156 286 -47 61 -114 80 -188 51z m103 -53 c15 -8 33 -27 40
-43 12 -26 12 -27 -6 -12 -12 11 -36 16 -76 15 -52 -1 -62 -4 -84 -30 -21 -25
-24 -37 -20 -73 4 -36 2 -41 -9 -32 -22 18 -27 72 -10 112 27 65 104 94 165
63z"/>
<path d="M3720 6810 c-38 -38 -18 -90 35 -90 35 0 55 20 55 54 0 20 -35 56
-55 56 -8 0 -24 -9 -35 -20z"/>
<path d="M6410 6799 c-15 -27 -5 -66 19 -79 28 -14 69 4 77 34 9 39 -11 66
-51 66 -25 0 -37 -6 -45 -21z"/>
<path d="M2661 6676 c-146 -48 -188 -234 -77 -342 48 -46 116 -70 172 -61 53
9 121 53 152 99 23 35 27 52 27 108 0 57 -5 74 -30 115 -50 80 -146 112 -244
81z m161 -67 c39 -28 62 -75 62 -129 0 -55 -14 -81 -58 -115 -101 -77 -246
-11 -246 112 0 128 140 204 242 132z"/>
<path d="M8872 6338 c-16 -16 -15 -33 2 -47 22 -18 58 4 54 32 -3 25 -37 34
-56 15z"/>
<path d="M3157 6242 c-34 -38 -8 -92 44 -92 32 0 49 17 49 50 0 52 -60 78 -93
42z"/>
<path d="M6970 6236 c-18 -35 -6 -74 27 -82 32 -8 55 5 67 39 20 56 -66 95
-94 43z"/>
<path d="M6420 6011 c-16 -31 -12 -59 10 -66 28 -9 50 11 50 45 0 41 -41 55
-60 21z"/>
<path d="M1140 5951 c0 -5 9 -7 20 -4 14 4 20 0 20 -11 0 -10 5 -14 10 -11 22
14 10 35 -20 35 -16 0 -30 -4 -30 -9z"/>
<path d="M2949 5869 c-26 -26 -21 -57 13 -82 l28 -21 25 24 c30 28 32 60 7 83
-25 23 -48 21 -73 -4z"/>
<path d="M7197 5872 c-20 -22 -22 -63 -5 -80 22 -22 66 -14 85 14 15 24 15 29
2 53 -18 32 -59 39 -82 13z"/>
<path d="M2360 5736 c0 -2 16 -6 35 -8 19 -2 35 0 35 4 0 4 -16 8 -35 8 -19 0
-35 -2 -35 -4z"/>
<path d="M1151 5354 c0 -11 3 -14 6 -6 3 7 2 16 -1 19 -3 4 -6 -2 -5 -13z"/>
<path d="M7992 5735 c0 -16 2 -22 5 -12 2 9 2 23 0 30 -3 6 -5 -1 -5 -18z"/>
<path d="M7993 5640 c0 -25 2 -35 4 -22 2 12 2 32 0 45 -2 12 -4 2 -4 -23z"/>
<path d="M7992 5305 c0 -16 2 -22 5 -12 2 9 2 23 0 30 -3 6 -5 -1 -5 -18z"/>
<path d="M8250 5263 c0 -6 8 -17 18 -24 16 -13 16 -13 2 6 -8 11 -16 22 -17
24 -2 2 -3 0 -3 -6z"/>
<path d="M7992 5175 c0 -16 2 -22 5 -12 2 9 2 23 0 30 -3 6 -5 -1 -5 -18z"/>
<path d="M8325 5190 c-8 -13 15 -24 27 -12 6 6 4 11 -6 15 -8 3 -18 2 -21 -3z"/>
<path d="M7994 5000 c0 -69 1 -97 3 -62 2 34 2 90 0 125 -2 34 -3 6 -3 -63z"/>
<path d="M8841 4464 c0 -11 3 -14 6 -6 3 7 2 16 -1 19 -3 4 -6 -2 -5 -13z"/>
<path d="M8240 4390 c0 -12 37 -12 65 0 15 7 10 9 -22 9 -24 1 -43 -3 -43 -9z"/>
<path d="M8305 5400 c10 -11 20 -20 23 -20 3 0 -3 9 -13 20 -10 11 -20 20 -23
20 -3 0 3 -9 13 -20z"/>
<path d="M8461 5004 c0 -11 3 -14 6 -6 3 7 2 16 -1 19 -3 4 -6 -2 -5 -13z"/>
<path d="M8420 4915 c0 -5 5 -17 10 -25 5 -8 10 -10 10 -5 0 6 -5 17 -10 25
-5 8 -10 11 -10 5z"/>
<path d="M1283 5075 c-34 -14 -48 -43 -38 -75 9 -27 37 -25 65 5 22 23 30 25
113 25 84 0 90 -2 109 -26 27 -33 62 -29 66 8 2 19 -5 36 -22 53 -24 24 -30
25 -143 25 -77 -1 -129 -6 -150 -15z"/>
<path d="M1710 5083 c-35 -7 -48 -19 -55 -55 -5 -21 -3 -33 6 -39 21 -13 25
-11 55 16 24 23 35 25 112 25 78 0 87 -2 109 -26 29 -32 57 -28 61 8 2 19 -5
36 -22 53 -24 24 -30 25 -133 24 -59 -1 -119 -4 -133 -6z"/>
<path d="M1640 4360 c0 -5 5 -10 11 -10 5 0 7 5 4 10 -3 6 -8 10 -11 10 -2 0
-4 -4 -4 -10z"/>
<path d="M1538 4333 c6 -2 18 -2 25 0 6 3 1 5 -13 5 -14 0 -19 -2 -12 -5z"/>
<path d="M2028 4323 c7 -3 16 -2 19 1 4 3 -2 6 -13 5 -11 0 -14 -3 -6 -6z"/>
<path d="M1823 4293 c32 -2 81 -2 110 0 29 2 3 3 -58 3 -60 0 -84 -1 -52 -3z"/>
<path d="M1788 4443 c6 -2 18 -2 25 0 6 3 1 5 -13 5 -14 0 -19 -2 -12 -5z"/>
<path d="M2178 4433 c12 -2 32 -2 45 0 12 2 2 4 -23 4 -25 0 -35 -2 -22 -4z"/>
<path d="M8473 3973 c9 -2 25 -2 35 0 9 3 1 5 -18 5 -19 0 -27 -2 -17 -5z"/>
<path d="M8451 3934 c0 -11 3 -14 6 -6 3 7 2 16 -1 19 -3 4 -6 -2 -5 -13z"/>
<path d="M3002 3934 c-50 -35 -11 -114 47 -93 30 12 41 26 41 56 0 21 -33 53
-55 53 -6 0 -21 -7 -33 -16z"/>
<path d="M7124 3915 c-3 -14 -3 -36 0 -49 13 -52 96 -33 96 22 0 37 -17 52
-57 52 -26 0 -34 -5 -39 -25z"/>
<path d="M1312 3598 c-7 -7 -12 -24 -12 -40 0 -50 66 -62 91 -17 23 43 -44 92
-79 57z"/>
<path d="M1922 3535 c7 -7 309 -7 316 0 3 3 -68 5 -158 5 -90 0 -161 -2 -158
-5z"/>
<path d="M2285 3531 c11 -5 76 -5 145 -1 l125 7 -145 1 c-80 0 -136 -3 -125
-7z"/>
<path d="M2215 3410 c-26 -29 -96 -60 -137 -60 -36 0 -48 -12 -48 -50 0 -10
-14 -44 -31 -76 l-30 -58 24 -45 c14 -26 28 -62 32 -81 13 -69 14 -70 58 -70
28 0 61 -11 96 -30 l54 -30 45 26 c25 15 68 29 96 33 l51 6 11 50 c10 47 28
87 56 127 10 13 7 24 -15 55 -31 45 -47 86 -47 119 0 21 -5 24 -35 24 -45 0
-102 24 -136 56 -25 24 -26 24 -44 4z m6 -172 c14 -53 2 -68 -52 -68 -48 0
-49 1 -49 30 0 65 85 97 101 38z m100 11 c13 -13 19 -30 17 -47 -3 -25 -7 -27
-48 -27 -42 0 -44 1 -52 35 -4 19 -5 41 -3 48 7 19 63 14 86 -9z m20 -115 c14
-38 -10 -71 -58 -80 -29 -5 -39 -3 -50 11 -12 17 -13 17 -13 2 0 -38 -94 -5
-102 35 -8 40 1 48 53 48 50 0 53 -3 52 -47 -1 -7 3 -10 8 -7 5 3 9 11 8 17
-3 29 3 36 39 40 20 2 40 4 45 5 4 1 12 -10 18 -24z"/>
<path d="M2661 2934 c0 -11 3 -14 6 -6 3 7 2 16 -1 19 -3 4 -6 -2 -5 -13z"/>
<path d="M2600 2809 c0 -5 5 -7 10 -4 6 3 10 8 10 11 0 2 -4 4 -10 4 -5 0 -10
-5 -10 -11z"/>
<path d="M2165 2800 c89 -11 388 -11 405 0 10 6 -67 9 -225 8 -158 0 -220 -3
-180 -8z"/>
<path d="M6861 3451 c-39 -39 -20 -91 32 -91 40 0 57 15 57 51 0 48 -56 73
-89 40z"/>
<path d="M3102 3154 c-15 -10 -22 -25 -22 -49 0 -39 11 -49 45 -41 35 9 43 45
16 68 -13 9 -20 22 -16 28 9 14 3 13 -23 -6z"/>
<path d="M3716 3054 c-21 -20 -20 -47 2 -74 39 -48 110 8 84 65 -14 29 -61 35
-86 9z"/>
<path d="M6422 3058 c-20 -20 -15 -76 8 -88 48 -26 104 44 69 86 -14 17 -60
19 -77 2z"/>
<path d="M7535 2540 c-3 -5 -1 -10 4 -10 6 0 11 5 11 10 0 6 -2 10 -4 10 -3 0
-8 -4 -11 -10z"/>
<path d="M7465 2520 c-3 -6 1 -7 9 -4 18 7 21 14 7 14 -6 0 -13 -4 -16 -10z"/>
<path d="M7630 2516 c0 -2 8 -10 18 -17 15 -13 16 -12 3 4 -13 16 -21 21 -21
13z"/>
<path d="M7138 2393 c12 -2 32 -2 45 0 12 2 2 4 -23 4 -25 0 -35 -2 -22 -4z"/>
<path d="M7288 2393 c6 -2 18 -2 25 0 6 3 1 5 -13 5 -14 0 -19 -2 -12 -5z"/>
<path d="M7773 2393 c9 -2 25 -2 35 0 9 3 1 5 -18 5 -19 0 -27 -2 -17 -5z"/>
<path d="M8013 2393 c15 -2 37 -2 50 0 12 2 0 4 -28 4 -27 0 -38 -2 -22 -4z"/>
<path d="M6080 2353 c-41 -7 -52 -12 -45 -24 5 -8 10 -8 18 0 6 6 28 11 49 11
21 0 38 5 38 10 0 10 -14 11 -60 3z"/>
<path d="M4203 1803 c9 -2 23 -2 30 0 6 3 -1 5 -18 5 -16 0 -22 -2 -12 -5z"/>
<path d="M6379 1830 c-46 -13 -78 -41 -99 -84 -26 -54 -25 -89 1 -143 58 -121
220 -115 285 9 43 82 -2 186 -95 217 -38 12 -55 13 -92 1z m-25 -75 c-5 -12 1
-12 35 2 50 20 83 7 102 -38 30 -73 -2 -122 -81 -125 -43 -2 -53 1 -70 23 -24
31 -26 94 -4 128 18 28 26 33 18 10z m173 -107 c-3 -8 -6 -5 -6 6 -1 11 2 17
5 13 3 -3 4 -12 1 -19z"/>
<path d="M4074 1226 c-20 -31 -6 -56 31 -56 51 0 63 72 13 78 -20 2 -31 -4
-44 -22z"/>
</g>
</svg>
